<?xml version="1.0" encoding="utf-8"?>
<!-- Generator: Adobe Illustrator 18.1.1, SVG Export Plug-In . SVG Version: 6.00 Build 0)  -->
<svg version="1.1" id="Layer_1" xmlns="http://www.w3.org/2000/svg" xmlns:xlink="http://www.w3.org/1999/xlink" x="0px" y="0px"
	 viewBox="0 0 109.5 80" enable-background="new 0 0 109.5 80" xml:space="preserve">
<g>
	<path fill="#001C86" stroke="#001C86" stroke-width="0.4983" stroke-miterlimit="10" d="M65.5,43.3c0-0.9-0.7-1.7-1.6-1.9L62,41.1
		c-0.2-0.6-0.4-1.2-0.7-1.8l1.1-1.6c0.5-0.8,0.5-1.8-0.2-2.5l-1.8-1.8c-0.4-0.4-0.8-0.6-1.4-0.6c-0.4,0-0.8,0.1-1.1,0.4l-1.6,1.1
		c-0.6-0.3-1.2-0.6-1.9-0.8l-0.3-1.9c-0.2-0.9-0.9-1.6-1.9-1.6l-2.5,0c-0.9,0-1.7,0.7-1.9,1.6l-0.3,1.9c-0.6,0.2-1.2,0.5-1.8,0.8
		l-1.6-1.1c-0.3-0.2-0.7-0.4-1.1-0.4c-0.5,0-1,0.2-1.4,0.6L40,35.3c-0.7,0.7-0.8,1.7-0.2,2.5l1.1,1.6c-0.3,0.6-0.5,1.2-0.7,1.8
		l-1.9,0.3c-0.9,0.2-1.6,0.9-1.6,1.9l0,2.5c0,0.9,0.7,1.7,1.6,1.9l1.9,0.3c0.2,0.6,0.4,1.2,0.8,1.8l-1.1,1.6
		c-0.5,0.8-0.5,1.8,0.2,2.5l1.8,1.8c0.4,0.4,0.8,0.6,1.4,0.6c0.4,0,0.8-0.1,1.1-0.4l1.6-1.1c0.5,0.3,1.1,0.5,1.7,0.7l0.3,1.9
		c0.2,0.9,1,1.6,1.9,1.6l2.5,0c0.9,0,1.7-0.7,1.9-1.6l0.3-1.9c0.6-0.2,1.2-0.4,1.8-0.7l1.6,1.1c0.3,0.2,0.7,0.4,1.1,0.4
		c0.5,0,1-0.2,1.4-0.6l1.8-1.8c0.7-0.7,0.8-1.7,0.2-2.5l-1.1-1.6c0.3-0.6,0.6-1.2,0.7-1.8l1.9-0.3c0.9-0.2,1.6-1,1.6-1.9L65.5,43.3z
		 M63.6,45.7v0.2l-2.5,0.4c-0.4,0.1-0.7,0.3-0.8,0.7c-0.2,0.9-0.6,1.7-1,2.5c-0.2,0.3-0.2,0.7,0,1l1.5,2.1l-1.8,1.8L57,52.8
		c-0.2-0.1-0.4-0.2-0.6-0.2c-0.2,0-0.3,0-0.5,0.1c-0.8,0.5-1.6,0.8-2.5,1c-0.4,0.1-0.6,0.4-0.7,0.8l-0.4,2.5l-2.5,0l-0.4-2.5
		c-0.1-0.4-0.3-0.7-0.7-0.8c-0.8-0.2-1.6-0.5-2.4-1c-0.1-0.1-0.3-0.1-0.5-0.1c-0.2,0-0.4,0.1-0.6,0.2l-2.1,1.5l-1.8-1.8l1.5-2.1
		c0.2-0.3,0.2-0.7,0-1c-0.5-0.8-0.8-1.6-1-2.4c-0.1-0.4-0.4-0.6-0.8-0.7l-2.5-0.4l0-2.5l2.5-0.4c0.4-0.1,0.7-0.3,0.8-0.7
		c0.2-0.9,0.6-1.7,1-2.5c0.2-0.3,0.2-0.7,0-1l-1.5-2.1l1.8-1.8l2.1,1.5c0.2,0.1,0.4,0.2,0.6,0.2c0.2,0,0.3,0,0.5-0.1
		c0.8-0.5,1.6-0.8,2.4-1c0.4-0.1,0.6-0.4,0.7-0.8l0.4-2.5l2.5,0l0.4,2.5c0.1,0.4,0.3,0.7,0.7,0.8c0.9,0.2,1.7,0.6,2.5,1
		c0.1,0.1,0.3,0.1,0.5,0.1c0.2,0,0.4-0.1,0.6-0.2l2.1-1.5l1.8,1.8l-1.5,2.1c-0.2,0.3-0.2,0.7,0,1c0.5,0.8,0.8,1.6,1,2.5
		c0.1,0.4,0.4,0.6,0.8,0.7l2.5,0.4L63.6,45.7L63.6,45.7z"/>
	<g>
		<path fill="#001C86" d="M51.1,38.3c-3.5,0-6.3,2.8-6.3,6.3c0,3.5,2.8,6.3,6.3,6.3h0c1.7,0,3.3-0.7,4.5-1.8
			c1.2-1.2,1.8-2.8,1.8-4.5C57.4,41.1,54.6,38.3,51.1,38.3z"/>
		<path fill="#FDBF5E" d="M54.2,47.7c-0.8,0.8-1.9,1.3-3.1,1.3c-2.4,0-4.4-2-4.4-4.4c0-2.4,2-4.4,4.4-4.4c2.4,0,4.4,2,4.4,4.4
			C55.5,45.7,55.1,46.8,54.2,47.7z"/>
	</g>
	<path fill="#FDBF5E" d="M57.2,20.3c-1.2-5.2-7.1-13-19-13c-8,0-15.1,9.1-15.6,14.2h32.4C55.7,21.1,56.4,20.7,57.2,20.3z"/>
	<path fill="#2EA2DB" d="M7,26.7L7,26.7c2.8,0,5.2,2.3,5.2,5.2v18.1c0,2.8-2.3,5.2-5.2,5.2L7,26.7z"/>
	<path fill="#001C86" d="M7.4,56.4c-3.6,0-6.5-2.8-6.5-6.5V31.8c0-3.6,2.8-6.5,6.5-6.5s6.5,2.8,6.5,6.5v18.1
		C13.8,53.5,11,56.4,7.4,56.4z M7.4,28c-2.2,0-3.9,1.7-3.9,3.9v18.1c0,2.2,1.7,3.9,3.9,3.9s3.9-1.7,3.9-3.9V31.8
		C11.2,29.6,9.6,28,7.4,28z"/>
	<rect x="27.2" y="60.2" fill="#2EA2DB" width="2.8" height="17"/>
	<path fill="#001C86" d="M33.2,15c0-1.4-1.2-2.6-2.6-2.6c-1.4,0-2.6,1.2-2.6,2.6c0,1.4,1.2,2.6,2.6,2.6C32,17.6,33.2,16.5,33.2,15"
		/>
	<path fill="#001C86" d="M46.1,15c0-1.4-1.2-2.6-2.6-2.6s-2.6,1.2-2.6,2.6c0,1.4,1.2,2.6,2.6,2.6C45,17.6,46.1,16.5,46.1,15"/>
	<path fill="#001C86" d="M26.6,9.9c-0.5,0-0.9-0.3-1.2-0.8L23,3.9c-0.3-0.7,0-1.4,0.7-1.7c0.7-0.3,1.4,0,1.7,0.7l2.5,5.2
		c0.3,0.7,0,1.4-0.7,1.7C27,9.7,26.9,9.9,26.6,9.9z"/>
	<path fill="#001C86" d="M47.4,9.9c-0.1,0-0.4,0-0.5-0.1c-0.7-0.3-0.9-1-0.7-1.7l2.5-5.2c0.3-0.7,1-0.9,1.7-0.7s0.9,1,0.7,1.7
		l-2.5,5.2C48.4,9.6,47.9,9.9,47.4,9.9z"/>
	<path fill="#2EA2DB" d="M81.3,25.2c-0.2,0-0.4-0.1-0.6-0.2c-0.3-0.2-0.4-0.4-0.4-0.7v-0.2c-0.2-0.8-0.2-1.5-0.2-2.1
		c0-6.8,5.1-10.6,10-12c0.3-0.1,0.4,0,0.7,0.1c0.3,0.1,0.4,0.4,0.4,0.6l0.1,0.3v0.1v0.2c0.1,0.6,0.1,1.2,0.1,1.7
		c0,5.8-3.7,10.3-10,12.2C81.5,25.2,81.4,25.2,81.3,25.2z"/>
	<path fill="#FDBF5E" d="M107.9,57.9c0-0.1,0-0.1,0-0.3v-1.3l-0.6-0.4c-4.7-2.5-7.3-5.9-8.1-10.3c-0.3-0.1-0.6-0.2-0.9-0.3
		c0,0.4-0.1,0.7-0.2,1.1c0,0.1,0,0.1-0.1,0.2l0.3,0.2v1.3c0,0.1,0,0.1,0,0.3c0,0.3,0.1,0.5,0.1,0.8c0,7.9-8.5,20.5-18.6,20.5
		c-2,0-4.1-0.8-6-1.4c-1.9-0.6-3.8-1.4-5.7-1.4c-2.3,0-4.6,0.8-6.6,1.6c-2,0.6-3.8,1.2-5.6,1.2c-1.2,0-2.3-0.2-3.4-0.6
		c3.9,6.7,8.3,10.2,13,10.2c1.8,0,3.6-0.7,5.6-1.2c2-0.9,4.3-1.6,6.6-1.6c1.9,0,3.8,0.8,5.7,1.4c1.9,0.6,3.9,1.4,6,1.4
		c10,0,18.6-12.6,18.6-20.5C108,58.4,107.9,58.2,107.9,57.9z"/>
	<path fill="#001C86" d="M57.6,20.2c-0.5-2.7-2.1-6.3-5.1-9.4c-2.7-2.7-7.6-6.1-15.2-6.1c-14.1,0-20.3,10.2-20.8,16.7l-0.1,1.4H53
		C54.4,21.8,55.9,20.9,57.6,20.2z M37.3,7.3c11.2,0,16.5,8,17.7,12.9H19.2C20.4,14.7,25.8,7.3,37.3,7.3z"/>
	<path fill="#2EA2DB" d="M49.5,69.7c-0.6-1.1-1.2-2.3-1.8-3.5v10.9h2.8v-5.7C50.1,70.9,49.8,70.4,49.5,69.7z"/>
	<g>
		<path fill="#001C86" d="M50,70.7v3.8c0,1.4-1.2,2.6-2.6,2.6c-1.4,0-2.6-1.2-2.6-2.6V60.3H29.3v14.2c0,1.4-1.2,2.6-2.6,2.6
			s-2.6-1.2-2.6-2.6V60.3H19V28h28.7c0.7-0.9,1.5-1.8,2.3-2.6H16.4v37.5h5.2v11.6c0,2.8,2.3,5.2,5.2,5.2s5.2-2.3,5.2-5.2V62.8h10.3
			v11.6c0,2.8,2.3,5.2,5.2,5.2c2.8,0,5.1-2.3,5.2-5.1C51.7,73.4,50.9,72.1,50,70.7z"/>
	</g>
	<path fill="#001C86" d="M78.2,27.1c-0.3,0-0.5-0.1-0.8-0.3c-0.4-0.3-0.5-0.6-0.5-1v-0.3c-0.3-1.2-0.3-2.1-0.3-3
		c0-9.6,7.3-15.1,14.1-17c0.4-0.1,0.6,0,1,0.1c0.4,0.1,0.5,0.5,0.6,0.8l0.1,0.4V7v0.3c0.1,0.9,0.1,1.7,0.1,2.5
		c0,8.2-5.2,14.6-14.1,17.3C78.5,27.1,78.3,27.1,78.2,27.1z M90,8.6c-5.5,1.9-10.9,6.5-10.9,14c0,0.4,0,0.9,0.1,1.6
		C83.4,22.6,90,18.7,90,9.9C90.1,9.5,90.1,9.1,90,8.6z"/>
	<g>
		<path fill="#001C86" d="M108.5,57.8c0-0.1,0-0.1,0-0.3v-1.3l-0.6-0.4c-5.8-3.1-8.6-7.6-8.6-13.5c0-5.1,2.2-9.3,6.2-12.2l1.6-0.8
			l-1-1.3c-2.6-3.2-7-7.7-13.9-7.7c-2.2,0-4.1,0.9-6.2,1.9c-2.2,1.2-4.5,2.2-7.4,2.2c-2,0-3.4-0.8-4.9-1.7c-1.8-1-3.8-2.2-6.7-2.2
			c-6.5,0-12,2.9-15.9,7.1l1.4,0c0.7,0,1.3,0.2,1.9,0.4c3.6-3.1,8.2-5,12.6-5c2.2,0,3.8,0.9,5.6,1.9c1.8,1,3.6,2.1,6.2,2.1
			c3.4,0,6.1-1.3,8.4-2.5c2-0.9,3.5-1.7,5.2-1.7c5.1,0,8.6,2.7,11.1,5.6c-4.1,3.2-6.5,8-6.5,13.6c0,6.8,3,11.8,9.2,15.3
			c0,0.1,0,0.3,0,0.4s0,0.3,0,0.4c0,9.8-10.2,18.3-16.4,18.3c-1.7,0-3.5-0.7-5.3-1.3c-2.2-0.8-4.4-1.6-6.7-1.6
			c-2.9,0-5.5,0.9-7.7,1.8c-1.7,0.7-3.4,1.3-4.7,1.3c-4.9,0-9-5.2-11.3-9.6c-1.1-2-2-4-2.8-6l-1.2,0h0c-0.6,0-1.2-0.2-1.8-0.4
			c0.9,2.5,2.1,5.1,3.5,7.6c4,7.3,8.7,11.1,13.6,11.1c1.8,0,3.6-0.7,5.7-1.3c2.1-0.9,4.4-1.7,6.7-1.7c1.9,0,3.9,0.8,5.8,1.4
			c1.9,0.6,4,1.4,6.1,1.4c10.2,0,19-12.9,19-20.9C108.6,58.3,108.5,58.1,108.5,57.8z"/>
	</g>
</g>
</svg>
